# Blender 4.0.2
# www.blender.org
mtllib multiplier.stage.mtl
g MultiplierStage_Mesh
v -0.102148 -0.011234 -4.500000
v 0.102148 -0.011234 -4.500000
v -0.159099 0.030600 -4.500000
v 0.159099 0.030600 -4.500000
v -0.125000 0.088766 -5.500000
v 0.125000 0.088766 -5.500000
v -0.125000 -0.011234 -5.500000
v 0.125000 -0.011234 -5.500000
v -0.100000 0.030600 -4.600000
v -0.100000 0.088766 -5.400000
v 0.100000 0.030600 -4.600000
v 0.100000 0.088766 -5.400000
v -0.100000 -0.011234 -4.600000
v -0.100000 -0.011234 -5.400000
v 0.100000 -0.011234 -4.600000
v 0.100000 -0.011234 -5.400000
v 0.113498 -0.032976 -4.500000
v 0.102148 -0.010701 -4.500000
v 0.113498 -0.032976 4.500000
v 0.102148 -0.010701 4.500000
v -0.176777 0.012999 4.500000
v -0.159099 0.030677 4.500000
v -0.176777 0.012999 -4.500000
v -0.159099 0.030677 -4.500000
v 0.176777 0.012999 -4.500000
v 0.159099 0.030677 -4.500000
v 0.176777 0.012999 4.500000
v 0.159099 0.030677 4.500000
v -0.102148 -0.010701 -4.500000
v -0.113498 -0.032976 -4.500000
v -0.113498 -0.032976 4.500000
v -0.102148 -0.010701 4.500000
vn -0.0000 -0.0000 -1.0000
vn 0.5907 -0.8041 -0.0669
vn 0.9997 -0.0000 0.0228
vn -0.5919 -0.8059 0.0135
vn -0.9994 -0.0000 -0.0341
vn -0.1097 0.9936 0.0274
vn 0.0842 0.9940 0.0698
vn -0.0841 0.9961 0.0266
vn 0.1218 0.9899 0.0720
vn -0.1037 0.9927 0.0613
vn 0.0994 0.9943 0.0374
vn -0.0819 0.9947 0.0620
vn 0.1434 0.9890 0.0358
vn 1.0000 -0.0000 -0.0000
vn -1.0000 -0.0000 -0.0000
vn -0.0000 -0.0000 1.0000
vn -0.0000 1.0000 -0.0000
vn -0.0000 -1.0000 -0.0000
vn -0.7071 0.7071 -0.0000
vn 0.5878 0.8090 -0.0000
vn -0.5878 -0.8090 -0.0000
vn 0.7071 0.7071 -0.0000
vn -0.5878 0.8090 -0.0000
vn 0.5878 -0.8090 -0.0000
vn -0.5596 0.7619 0.3261
vn -0.9998 -0.0000 0.0215
vn 0.5547 0.7650 0.3273
vn 0.9998 -0.0000 0.0215
vt 0.351850 0.957674
vt 0.351503 0.957645
vt 0.352068 0.953044
vt 0.351721 0.953015
vt 0.351484 0.948336
vt 0.352287 0.948395
vt 0.352288 0.962296
vt 0.351484 0.962335
vt 0.472929 0.883410
vt 0.473398 0.888268
vt 0.472574 0.883876
vt 0.472526 0.887556
vt 0.469312 0.888251
vt 0.469571 0.883485
vt 0.470107 0.887522
vt 0.469904 0.883909
vt 0.343972 0.896141
vt 0.345001 0.877239
vt 0.345740 0.896141
vt 0.345740 0.877239
vt 0.345001 0.933945
vt 0.343972 0.915043
vt 0.345740 0.933945
vt 0.345740 0.915043
vt 0.591374 0.820395
vt 0.591437 0.819973
vt 0.593594 0.820496
vt 0.593553 0.820038
vt 0.247760 0.303287
vt 0.247760 0.303287
vt 0.247760 0.303287
vt 0.247760 0.303287
vt 0.247760 0.303287
vt 0.350457 0.948380
vt 0.350576 0.948510
vt 0.347406 0.948336
vt 0.347237 0.948501
vt 0.350588 0.992733
vt 0.347250 0.992724
vt 0.346368 0.992706
vt 0.346345 0.992774
vt 0.346365 0.948524
vt 0.346345 0.948451
vt 0.347369 0.992853
vt 0.473294 0.932492
vt 0.472442 0.932489
vt 0.473397 0.888269
vt 0.472451 0.888206
vt 0.351458 0.948528
vt 0.351481 0.948460
vt 0.351461 0.992729
vt 0.351481 0.992811
vt 0.350416 0.992885
vt 0.470124 0.932491
vt 0.469472 0.932492
vt 0.470226 0.888103
vt 0.469313 0.888251
vt 0.591372 0.820397
vt 0.593597 0.820500
vt 0.591270 0.864785
vt 0.593589 0.864783
vt 0.470228 0.888101
vt 0.470290 0.887679
vt 0.472448 0.888202
vt 0.472407 0.887744
s 1
usemtl colors
f 7/1/1 5/2/1 8/3/1
f 8/3/1 5/2/1 6/4/1
f 4/5/2 2/6/2 6/4/2
f 6/4/3 2/6/3 8/3/3
f 1/7/4 3/8/4 7/1/4
f 7/1/5 3/8/5 5/2/5
f 5/9/6 3/10/7 10/11/8
f 10/11/8 3/10/7 9/12/9
f 4/13/10 6/14/11 11/15/12
f 11/15/12 6/14/11 12/16/13
f 6/14/11 5/9/6 12/16/13
f 12/16/13 5/9/6 10/11/8
f 10/17/14 9/18/14 14/19/14
f 14/19/14 9/18/14 13/20/14
f 11/21/15 12/22/15 15/23/15
f 15/23/15 12/22/15 16/24/15
f 12/22/16 10/17/16 16/24/16
f 16/24/16 10/17/16 14/19/16
f 2/25/17 15/26/17 1/27/17
f 15/26/17 13/28/17 1/27/17
f 1/29/18 7/30/18 13/31/18
f 13/31/18 7/30/18 14/30/18
f 7/30/18 8/32/18 14/30/18
f 14/30/18 8/32/18 16/32/18
f 8/32/18 2/33/18 16/32/18
f 16/32/18 2/33/18 15/33/18
f 18/34/1 17/35/1 29/36/1
f 29/36/1 17/35/1 30/37/1
f 17/35/18 19/38/18 30/37/18
f 30/37/18 19/38/18 31/39/18
f 21/40/19 22/41/19 23/42/19
f 23/42/19 22/41/19 24/43/19
f 23/42/1 24/43/1 30/37/1
f 30/37/1 24/43/1 29/36/1
f 31/39/16 32/44/16 21/40/16
f 21/40/16 32/44/16 22/41/16
f 22/45/20 32/46/20 24/47/20
f 24/47/20 32/46/20 29/48/20
f 31/39/21 21/40/21 30/37/21
f 30/37/21 21/40/21 23/42/21
f 17/35/1 18/34/1 25/49/1
f 25/49/1 18/34/1 26/50/1
f 25/49/22 26/50/22 27/51/22
f 27/51/22 26/50/22 28/52/22
f 27/51/16 28/52/16 19/38/16
f 19/38/16 28/52/16 20/53/16
f 20/54/23 28/55/23 18/56/23
f 18/56/23 28/55/23 26/57/23
f 27/51/24 19/38/24 25/49/24
f 25/49/24 19/38/24 17/35/24
f 20/53/16 32/44/16 19/38/16
f 19/38/16 32/44/16 31/39/16
f 18/58/17 29/59/17 20/60/17
f 20/60/17 29/59/17 32/61/17
s 0
f 26/57/25 4/13/25 11/15/25 2/62/25 18/56/25
f 2/62/26 11/15/26 15/63/26
f 3/10/27 24/47/27 29/48/27 9/12/27
f 9/12/28 29/48/28 1/64/28 13/65/28
